<svg width="51" height="13" viewBox="0 0 51 13" fill="none" xmlns="http://www.w3.org/2000/svg">
<path d="M0.418727 10V0.834999H2.19973L5.38473 7.985H4.96873L8.15373 0.834999H9.92173V10H8.07573V3.773H8.59573L5.74873 10H4.57873L1.71873 3.773H2.26473V10H0.418727ZM14.7961 10.143C14.0941 10.143 13.4831 10.0043 12.9631 9.727C12.4518 9.441 12.0531 9.04233 11.7671 8.531C11.4898 8.01967 11.3511 7.40867 11.3511 6.698C11.3511 5.996 11.4898 5.38933 11.7671 4.878C12.0531 4.36667 12.4518 3.97233 12.9631 3.695C13.4831 3.41767 14.0941 3.279 14.7961 3.279C15.4981 3.279 16.1091 3.41767 16.6291 3.695C17.1491 3.97233 17.5478 4.36667 17.8251 4.878C18.1111 5.38933 18.2541 5.996 18.2541 6.698C18.2541 7.40867 18.1111 8.01967 17.8251 8.531C17.5478 9.04233 17.1491 9.441 16.6291 9.727C16.1091 10.0043 15.4981 10.143 14.7961 10.143ZM14.7961 8.661C15.2468 8.661 15.6021 8.50067 15.8621 8.18C16.1308 7.85933 16.2651 7.36533 16.2651 6.698C16.2651 6.03067 16.1308 5.541 15.8621 5.229C15.6021 4.917 15.2468 4.761 14.7961 4.761C14.3455 4.761 13.9858 4.917 13.7171 5.229C13.4571 5.541 13.3271 6.03067 13.3271 6.698C13.3271 7.36533 13.4571 7.85933 13.7171 8.18C13.9858 8.50067 14.3455 8.661 14.7961 8.661ZM19.5218 10V5.125C19.5218 4.84767 19.5132 4.566 19.4958 4.28C19.4785 3.98533 19.4525 3.695 19.4178 3.409H21.3028L21.4458 4.631H21.2898C21.5065 4.19767 21.8142 3.864 22.2128 3.63C22.6115 3.396 23.0752 3.279 23.6038 3.279C24.3752 3.279 24.9515 3.50433 25.3328 3.955C25.7228 4.397 25.9178 5.086 25.9178 6.022V10H23.9548V6.113C23.9548 5.63633 23.8682 5.29833 23.6948 5.099C23.5215 4.89967 23.2615 4.8 22.9148 4.8C22.4815 4.8 22.1348 4.93867 21.8748 5.216C21.6148 5.48467 21.4848 5.84867 21.4848 6.308V10H19.5218ZM30.5755 10.143C29.7175 10.143 29.0718 9.93067 28.6385 9.506C28.2051 9.07267 27.9885 8.427 27.9885 7.569V4.878H26.7405V3.409H27.9885V1.797L29.9515 1.316V3.409H31.6415V4.878H29.9515V7.465C29.9515 7.881 30.0381 8.167 30.2115 8.323C30.3848 8.479 30.6058 8.557 30.8745 8.557C31.0391 8.557 31.1735 8.54833 31.2775 8.531C31.3901 8.505 31.5071 8.47033 31.6285 8.427V9.948C31.4638 10.0173 31.2905 10.065 31.1085 10.091C30.9265 10.1257 30.7488 10.143 30.5755 10.143ZM32.6488 10V0.431999H34.6118V4.644H34.4168C34.6248 4.202 34.9324 3.864 35.3398 3.63C35.7471 3.396 36.2151 3.279 36.7438 3.279C37.5151 3.279 38.0914 3.50433 38.4728 3.955C38.8541 4.397 39.0448 5.07733 39.0448 5.996V10H37.0818V6.087C37.0818 5.62767 36.9951 5.29833 36.8218 5.099C36.6571 4.89967 36.3971 4.8 36.0418 4.8C35.6084 4.8 35.2618 4.93433 35.0018 5.203C34.7418 5.47167 34.6118 5.83133 34.6118 6.282V10H32.6488ZM40.6214 10V0.431999H42.5844V10H40.6214ZM44.1238 12.951L43.6688 11.417C44.0761 11.339 44.4185 11.248 44.6958 11.144C44.9818 11.04 45.2158 10.9013 45.3978 10.728C45.5798 10.5633 45.7271 10.3467 45.8398 10.078L46.1648 9.311L46.1128 10.065L43.2528 3.409H45.3198L47.2048 8.18H46.8018L48.7128 3.409H50.6628L47.6858 10.26C47.4691 10.754 47.2351 11.1613 46.9838 11.482C46.7411 11.8113 46.4768 12.0713 46.1908 12.262C45.9048 12.4527 45.5885 12.6 45.2418 12.704C44.9038 12.808 44.5311 12.8903 44.1238 12.951Z" fill="black"/>
</svg>
