<svg width="121" height="11" viewBox="0 0 121 11" fill="none" xmlns="http://www.w3.org/2000/svg">
<path d="M0.104895 5.411C0.104895 4.45767 0.282561 3.63 0.637895 2.928C1.00189 2.21733 1.52189 1.667 2.19789 1.277C2.87389 0.887 3.67556 0.692 4.60289 0.692C5.53023 0.692 6.33189 0.887 7.00789 1.277C7.68389 1.667 8.20389 2.21733 8.56789 2.928C8.94056 3.63 9.1269 4.45333 9.1269 5.398C9.1269 6.36 8.94056 7.19633 8.56789 7.907C8.20389 8.609 7.68389 9.15933 7.00789 9.558C6.33189 9.948 5.53023 10.143 4.60289 10.143C3.67556 10.143 2.87389 9.948 2.19789 9.558C1.53056 9.15933 1.01489 8.60467 0.650895 7.894C0.286895 7.18333 0.104895 6.35567 0.104895 5.411ZM2.22389 5.411C2.22389 6.35567 2.41889 7.09667 2.80889 7.634C3.20756 8.16267 3.80556 8.427 4.60289 8.427C5.38289 8.427 5.97656 8.16267 6.3839 7.634C6.79123 7.09667 6.99489 6.35567 6.99489 5.411C6.99489 4.45767 6.79123 3.721 6.3839 3.201C5.98523 2.67233 5.39156 2.408 4.60289 2.408C3.80556 2.408 3.20756 2.67233 2.80889 3.201C2.41889 3.721 2.22389 4.45767 2.22389 5.411ZM10.5819 10V5.125C10.5819 4.84767 10.5732 4.566 10.5559 4.28C10.5385 3.98533 10.5125 3.695 10.4779 3.409H12.3629L12.5059 4.631H12.3499C12.5665 4.19767 12.8742 3.864 13.2729 3.63C13.6715 3.396 14.1352 3.279 14.6639 3.279C15.4352 3.279 16.0115 3.50433 16.3929 3.955C16.7829 4.397 16.9779 5.086 16.9779 6.022V10H15.0149V6.113C15.0149 5.63633 14.9282 5.29833 14.7549 5.099C14.5815 4.89967 14.3215 4.8 13.9749 4.8C13.5415 4.8 13.1949 4.93867 12.9349 5.216C12.6749 5.48467 12.5449 5.84867 12.5449 6.308V10H10.5819ZM21.8695 10.143C20.7255 10.143 19.8329 9.83533 19.1915 9.22C18.5502 8.60467 18.2295 7.76833 18.2295 6.711C18.2295 6.02633 18.3639 5.42833 18.6325 4.917C18.9099 4.40567 19.2912 4.007 19.7765 3.721C20.2705 3.42633 20.8469 3.279 21.5055 3.279C22.1555 3.279 22.6972 3.41767 23.1305 3.695C23.5725 3.97233 23.9019 4.36233 24.1185 4.865C24.3439 5.359 24.4565 5.93533 24.4565 6.594V7.049H19.8415V6.074H23.0265L22.8055 6.256C22.8055 5.71 22.6929 5.29833 22.4675 5.021C22.2509 4.735 21.9345 4.592 21.5185 4.592C21.0592 4.592 20.7039 4.761 20.4525 5.099C20.2099 5.437 20.0885 5.92233 20.0885 6.555V6.763C20.0885 7.40433 20.2445 7.881 20.5565 8.193C20.8772 8.505 21.3365 8.661 21.9345 8.661C22.2899 8.661 22.6235 8.61767 22.9355 8.531C23.2562 8.43567 23.5595 8.28833 23.8455 8.089L24.3915 9.389C24.0622 9.63167 23.6809 9.818 23.2475 9.948C22.8229 10.078 22.3635 10.143 21.8695 10.143ZM31.6199 10V2.486H28.7079V0.834999H36.5599V2.486H33.6479V10H31.6199ZM37.534 10V3.409H39.497V10H37.534ZM37.456 2.33V0.497H39.562V2.33H37.456ZM41.1014 10V5.125C41.1014 4.84767 41.0927 4.566 41.0754 4.28C41.0581 3.98533 41.0321 3.695 40.9974 3.409H42.8824L43.0254 4.631H42.8694C43.0601 4.215 43.3417 3.88567 43.7144 3.643C44.0871 3.40033 44.5291 3.279 45.0404 3.279C45.5431 3.279 45.9634 3.40033 46.3014 3.643C46.6481 3.877 46.8951 4.24533 47.0424 4.748H46.8344C47.0251 4.29733 47.3284 3.942 47.7444 3.682C48.1604 3.41333 48.6327 3.279 49.1614 3.279C49.9067 3.279 50.4614 3.5 50.8254 3.942C51.1894 4.384 51.3714 5.07733 51.3714 6.022V10H49.4084V6.087C49.4084 5.62767 49.3347 5.29833 49.1874 5.099C49.0401 4.89967 48.8017 4.8 48.4724 4.8C48.0824 4.8 47.7747 4.93867 47.5494 5.216C47.3241 5.49333 47.2114 5.87467 47.2114 6.36V10H45.2484V6.087C45.2484 5.62767 45.1747 5.29833 45.0274 5.099C44.8801 4.89967 44.6417 4.8 44.3124 4.8C43.9224 4.8 43.6147 4.93867 43.3894 5.216C43.1727 5.49333 43.0644 5.87467 43.0644 6.36V10H41.1014ZM56.2611 10.143C55.1171 10.143 54.2245 9.83533 53.5831 9.22C52.9418 8.60467 52.6211 7.76833 52.6211 6.711C52.6211 6.02633 52.7555 5.42833 53.0241 4.917C53.3015 4.40567 53.6828 4.007 54.1681 3.721C54.6621 3.42633 55.2385 3.279 55.8971 3.279C56.5471 3.279 57.0888 3.41767 57.5221 3.695C57.9641 3.97233 58.2935 4.36233 58.5101 4.865C58.7355 5.359 58.8481 5.93533 58.8481 6.594V7.049H54.2331V6.074H57.4181L57.1971 6.256C57.1971 5.71 57.0845 5.29833 56.8591 5.021C56.6425 4.735 56.3261 4.592 55.9101 4.592C55.4508 4.592 55.0955 4.761 54.8441 5.099C54.6015 5.437 54.4801 5.92233 54.4801 6.555V6.763C54.4801 7.40433 54.6361 7.881 54.9481 8.193C55.2688 8.505 55.7281 8.661 56.3261 8.661C56.6815 8.661 57.0151 8.61767 57.3271 8.531C57.6478 8.43567 57.9511 8.28833 58.2371 8.089L58.7831 9.389C58.4538 9.63167 58.0725 9.818 57.6391 9.948C57.2145 10.078 56.7551 10.143 56.2611 10.143ZM63.8925 10V0.834999H67.3895C68.4555 0.834999 69.3569 1.017 70.0935 1.381C70.8302 1.745 71.3849 2.26933 71.7575 2.954C72.1389 3.63 72.3295 4.449 72.3295 5.411C72.3295 6.36433 72.1389 7.18333 71.7575 7.868C71.3849 8.55267 70.8302 9.08133 70.0935 9.454C69.3569 9.818 68.4555 10 67.3895 10H63.8925ZM65.9205 8.336H67.2725C68.2952 8.336 69.0535 8.09767 69.5475 7.621C70.0502 7.13567 70.3015 6.399 70.3015 5.411C70.3015 4.41433 70.0502 3.67767 69.5475 3.201C69.0535 2.72433 68.2952 2.486 67.2725 2.486H65.9205V8.336ZM76.9118 10.143C76.2098 10.143 75.5988 10.0043 75.0788 9.727C74.5675 9.441 74.1688 9.04233 73.8828 8.531C73.6055 8.01967 73.4668 7.40867 73.4668 6.698C73.4668 5.996 73.6055 5.38933 73.8828 4.878C74.1688 4.36667 74.5675 3.97233 75.0788 3.695C75.5988 3.41767 76.2098 3.279 76.9118 3.279C77.6138 3.279 78.2248 3.41767 78.7448 3.695C79.2648 3.97233 79.6635 4.36667 79.9408 4.878C80.2268 5.38933 80.3698 5.996 80.3698 6.698C80.3698 7.40867 80.2268 8.01967 79.9408 8.531C79.6635 9.04233 79.2648 9.441 78.7448 9.727C78.2248 10.0043 77.6138 10.143 76.9118 10.143ZM76.9118 8.661C77.3625 8.661 77.7178 8.50067 77.9778 8.18C78.2465 7.85933 78.3808 7.36533 78.3808 6.698C78.3808 6.03067 78.2465 5.541 77.9778 5.229C77.7178 4.917 77.3625 4.761 76.9118 4.761C76.4612 4.761 76.1015 4.917 75.8328 5.229C75.5728 5.541 75.4428 6.03067 75.4428 6.698C75.4428 7.36533 75.5728 7.85933 75.8328 8.18C76.1015 8.50067 76.4612 8.661 76.9118 8.661ZM81.6375 10V5.125C81.6375 4.84767 81.6289 4.566 81.6115 4.28C81.5942 3.98533 81.5682 3.695 81.5335 3.409H83.4185L83.5615 4.631H83.4055C83.6222 4.19767 83.9299 3.864 84.3285 3.63C84.7272 3.396 85.1909 3.279 85.7195 3.279C86.4909 3.279 87.0672 3.50433 87.4485 3.955C87.8385 4.397 88.0335 5.086 88.0335 6.022V10H86.0705V6.113C86.0705 5.63633 85.9839 5.29833 85.8105 5.099C85.6372 4.89967 85.3772 4.8 85.0305 4.8C84.5972 4.8 84.2505 4.93867 83.9905 5.216C83.7305 5.48467 83.6005 5.84867 83.6005 6.308V10H81.6375ZM92.1712 10.143C91.5992 10.143 91.0965 10.0043 90.6632 9.727C90.2299 9.44967 89.8919 9.05533 89.6492 8.544C89.4065 8.03267 89.2852 7.41733 89.2852 6.698C89.2852 5.98733 89.4065 5.37633 89.6492 4.865C89.8919 4.35367 90.2299 3.96367 90.6632 3.695C91.0965 3.41767 91.5992 3.279 92.1712 3.279C92.6999 3.279 93.1722 3.409 93.5882 3.669C94.0129 3.92033 94.2902 4.26267 94.4202 4.696H94.2772L94.4332 3.409H96.3182C96.2922 3.695 96.2662 3.98533 96.2402 4.28C96.2229 4.566 96.2142 4.84767 96.2142 5.125V10H94.2642L94.2512 8.765H94.4072C94.2685 9.181 93.9912 9.51467 93.5752 9.766C93.1592 10.0173 92.6912 10.143 92.1712 10.143ZM92.7692 8.661C93.2199 8.661 93.5839 8.50067 93.8612 8.18C94.1385 7.85933 94.2772 7.36533 94.2772 6.698C94.2772 6.03067 94.1385 5.541 93.8612 5.229C93.5839 4.917 93.2199 4.761 92.7692 4.761C92.3185 4.761 91.9545 4.917 91.6772 5.229C91.3999 5.541 91.2612 6.03067 91.2612 6.698C91.2612 7.36533 91.3955 7.85933 91.6642 8.18C91.9415 8.50067 92.3099 8.661 92.7692 8.661ZM100.905 10.143C100.047 10.143 99.4014 9.93067 98.9681 9.506C98.5347 9.07267 98.3181 8.427 98.3181 7.569V4.878H97.0701V3.409H98.3181V1.797L100.281 1.316V3.409H101.971V4.878H100.281V7.465C100.281 7.881 100.368 8.167 100.541 8.323C100.714 8.479 100.935 8.557 101.204 8.557C101.369 8.557 101.503 8.54833 101.607 8.531C101.72 8.505 101.837 8.47033 101.958 8.427V9.948C101.793 10.0173 101.62 10.065 101.438 10.091C101.256 10.1257 101.078 10.143 100.905 10.143ZM102.978 10V3.409H104.941V10H102.978ZM102.9 2.33V0.497H105.006V2.33H102.9ZM109.666 10.143C108.964 10.143 108.353 10.0043 107.833 9.727C107.321 9.441 106.923 9.04233 106.637 8.531C106.359 8.01967 106.221 7.40867 106.221 6.698C106.221 5.996 106.359 5.38933 106.637 4.878C106.923 4.36667 107.321 3.97233 107.833 3.695C108.353 3.41767 108.964 3.279 109.666 3.279C110.368 3.279 110.979 3.41767 111.499 3.695C112.019 3.97233 112.417 4.36667 112.695 4.878C112.981 5.38933 113.124 5.996 113.124 6.698C113.124 7.40867 112.981 8.01967 112.695 8.531C112.417 9.04233 112.019 9.441 111.499 9.727C110.979 10.0043 110.368 10.143 109.666 10.143ZM109.666 8.661C110.116 8.661 110.472 8.50067 110.732 8.18C111 7.85933 111.135 7.36533 111.135 6.698C111.135 6.03067 111 5.541 110.732 5.229C110.472 4.917 110.116 4.761 109.666 4.761C109.215 4.761 108.855 4.917 108.587 5.229C108.327 5.541 108.197 6.03067 108.197 6.698C108.197 7.36533 108.327 7.85933 108.587 8.18C108.855 8.50067 109.215 8.661 109.666 8.661ZM114.391 10V5.125C114.391 4.84767 114.383 4.566 114.365 4.28C114.348 3.98533 114.322 3.695 114.287 3.409H116.172L116.315 4.631H116.159C116.376 4.19767 116.684 3.864 117.082 3.63C117.481 3.396 117.945 3.279 118.473 3.279C119.245 3.279 119.821 3.50433 120.202 3.955C120.592 4.397 120.787 5.086 120.787 6.022V10H118.824V6.113C118.824 5.63633 118.738 5.29833 118.564 5.099C118.391 4.89967 118.131 4.8 117.784 4.8C117.351 4.8 117.004 4.93867 116.744 5.216C116.484 5.48467 116.354 5.84867 116.354 6.308V10H114.391Z" fill="black"/>
</svg>
