<svg width="47" height="13" viewBox="0 0 47 13" fill="none" xmlns="http://www.w3.org/2000/svg">
<path d="M3.87279 10L0.622793 0.834999H2.71579L5.04279 7.907H4.48379L7.01879 0.834999H8.50079L10.8278 7.907H10.3078L12.7778 0.834999H14.7408L11.4648 10H9.81379L7.56479 3.487H7.86379L5.53679 10H3.87279ZM18.2836 10.143C17.1396 10.143 16.2469 9.83533 15.6056 9.22C14.9643 8.60467 14.6436 7.76833 14.6436 6.711C14.6436 6.02633 14.7779 5.42833 15.0466 4.917C15.3239 4.40567 15.7053 4.007 16.1906 3.721C16.6846 3.42633 17.2609 3.279 17.9196 3.279C18.5696 3.279 19.1113 3.41767 19.5446 3.695C19.9866 3.97233 20.3159 4.36233 20.5326 4.865C20.7579 5.359 20.8706 5.93533 20.8706 6.594V7.049H16.2556V6.074H19.4406L19.2196 6.256C19.2196 5.71 19.1069 5.29833 18.8816 5.021C18.6649 4.735 18.3486 4.592 17.9326 4.592C17.4733 4.592 17.1179 4.761 16.8666 5.099C16.6239 5.437 16.5026 5.92233 16.5026 6.555V6.763C16.5026 7.40433 16.6586 7.881 16.9706 8.193C17.2913 8.505 17.7506 8.661 18.3486 8.661C18.7039 8.661 19.0376 8.61767 19.3496 8.531C19.6703 8.43567 19.9736 8.28833 20.2596 8.089L20.8056 9.389C20.4763 9.63167 20.0949 9.818 19.6616 9.948C19.2369 10.078 18.7776 10.143 18.2836 10.143ZM25.4311 10.143C24.2871 10.143 23.3944 9.83533 22.7531 9.22C22.1117 8.60467 21.7911 7.76833 21.7911 6.711C21.7911 6.02633 21.9254 5.42833 22.1941 4.917C22.4714 4.40567 22.8527 4.007 23.3381 3.721C23.8321 3.42633 24.4084 3.279 25.0671 3.279C25.7171 3.279 26.2587 3.41767 26.6921 3.695C27.1341 3.97233 27.4634 4.36233 27.6801 4.865C27.9054 5.359 28.0181 5.93533 28.0181 6.594V7.049H23.4031V6.074H26.5881L26.3671 6.256C26.3671 5.71 26.2544 5.29833 26.0291 5.021C25.8124 4.735 25.4961 4.592 25.0801 4.592C24.6207 4.592 24.2654 4.761 24.0141 5.099C23.7714 5.437 23.6501 5.92233 23.6501 6.555V6.763C23.6501 7.40433 23.8061 7.881 24.1181 8.193C24.4387 8.505 24.8981 8.661 25.4961 8.661C25.8514 8.661 26.1851 8.61767 26.4971 8.531C26.8177 8.43567 27.1211 8.28833 27.4071 8.089L27.9531 9.389C27.6237 9.63167 27.2424 9.818 26.8091 9.948C26.3844 10.078 25.9251 10.143 25.4311 10.143ZM29.2635 10V0.431999H31.2265V6.152H31.2525L33.6965 3.409H36.0365L32.8775 6.919V6.204L36.2055 10H33.8005L31.2525 7.14H31.2265V10H29.2635ZM36.7284 10V0.431999H38.6914V10H36.7284ZM40.2307 12.951L39.7757 11.417C40.1831 11.339 40.5254 11.248 40.8027 11.144C41.0887 11.04 41.3227 10.9013 41.5047 10.728C41.6867 10.5633 41.8341 10.3467 41.9467 10.078L42.2717 9.311L42.2197 10.065L39.3597 3.409H41.4267L43.3117 8.18H42.9087L44.8197 3.409H46.7697L43.7927 10.26C43.5761 10.754 43.3421 11.1613 43.0907 11.482C42.8481 11.8113 42.5837 12.0713 42.2977 12.262C42.0117 12.4527 41.6954 12.6 41.3487 12.704C41.0107 12.808 40.6381 12.8903 40.2307 12.951Z" fill="black"/>
</svg>
