<svg width="55" height="13" viewBox="0 0 55 13" fill="none" xmlns="http://www.w3.org/2000/svg">
<path d="M7.04348 12.496C6.75748 12.3487 6.46714 12.145 6.17248 11.885C5.88648 11.6337 5.61781 11.3477 5.36648 11.027C5.12381 10.715 4.91581 10.39 4.74248 10.052L6.31548 9.35C6.53214 9.792 6.83114 10.195 7.21248 10.559C7.59381 10.9317 7.99248 11.235 8.40848 11.469L7.04348 12.496ZM0.101477 5.411C0.101477 4.45767 0.279143 3.63 0.634477 2.928C0.998477 2.21733 1.51848 1.667 2.19448 1.277C2.87048 0.887 3.67214 0.692 4.59948 0.692C5.52681 0.692 6.32848 0.887 7.00448 1.277C7.68048 1.667 8.20048 2.21733 8.56448 2.928C8.93714 3.63 9.12348 4.45333 9.12348 5.398C9.12348 6.36 8.93714 7.19633 8.56448 7.907C8.20048 8.609 7.68048 9.15933 7.00448 9.558C6.32848 9.948 5.52681 10.143 4.59948 10.143C3.67214 10.143 2.87048 9.948 2.19448 9.558C1.52714 9.15933 1.01148 8.60467 0.647477 7.894C0.283477 7.18333 0.101477 6.35567 0.101477 5.411ZM2.22048 5.411C2.22048 6.35567 2.41548 7.09667 2.80548 7.634C3.20414 8.16267 3.80214 8.427 4.59948 8.427C5.37948 8.427 5.97314 8.16267 6.38048 7.634C6.78781 7.09667 6.99148 6.35567 6.99148 5.411C6.99148 4.45767 6.78781 3.721 6.38048 3.201C5.98181 2.67233 5.38814 2.408 4.59948 2.408C3.80214 2.408 3.20414 2.67233 2.80548 3.201C2.41548 3.721 2.22048 4.45767 2.22048 5.411ZM12.9705 10.143C12.1471 10.143 11.5361 9.91767 11.1375 9.467C10.7388 9.00767 10.5395 8.31433 10.5395 7.387V3.409H12.5025V7.387C12.5025 7.803 12.5848 8.11067 12.7495 8.31C12.9228 8.50933 13.1871 8.609 13.5425 8.609C13.9325 8.609 14.2531 8.47467 14.5045 8.206C14.7645 7.92867 14.8945 7.56033 14.8945 7.101V3.409H16.8575V10H14.9465V8.739H15.1285C14.9291 9.181 14.6431 9.52767 14.2705 9.779C13.9065 10.0217 13.4731 10.143 12.9705 10.143ZM21.0359 10.143C20.4639 10.143 19.9613 10.0043 19.5279 9.727C19.0946 9.44967 18.7566 9.05533 18.5139 8.544C18.2713 8.03267 18.1499 7.41733 18.1499 6.698C18.1499 5.98733 18.2713 5.37633 18.5139 4.865C18.7566 4.35367 19.0946 3.96367 19.5279 3.695C19.9613 3.41767 20.4639 3.279 21.0359 3.279C21.5646 3.279 22.0369 3.409 22.4529 3.669C22.8776 3.92033 23.1549 4.26267 23.2849 4.696H23.1419L23.2979 3.409H25.1829C25.1569 3.695 25.1309 3.98533 25.1049 4.28C25.0876 4.566 25.0789 4.84767 25.0789 5.125V10H23.1289L23.1159 8.765H23.2719C23.1333 9.181 22.8559 9.51467 22.4399 9.766C22.0239 10.0173 21.5559 10.143 21.0359 10.143ZM21.6339 8.661C22.0846 8.661 22.4486 8.50067 22.7259 8.18C23.0033 7.85933 23.1419 7.36533 23.1419 6.698C23.1419 6.03067 23.0033 5.541 22.7259 5.229C22.4486 4.917 22.0846 4.761 21.6339 4.761C21.1833 4.761 20.8193 4.917 20.5419 5.229C20.2646 5.541 20.1259 6.03067 20.1259 6.698C20.1259 7.36533 20.2603 7.85933 20.5289 8.18C20.8063 8.50067 21.1746 8.661 21.6339 8.661ZM26.6758 10V5.151C26.6758 4.865 26.6671 4.57467 26.6498 4.28C26.6411 3.98533 26.6195 3.695 26.5848 3.409H28.4698L28.6908 5.333H28.3918C28.4785 4.865 28.6171 4.47933 28.8078 4.176C29.0071 3.87267 29.2498 3.64733 29.5358 3.5C29.8305 3.35267 30.1641 3.279 30.5368 3.279C30.7015 3.279 30.8315 3.28767 30.9268 3.305C31.0221 3.31367 31.1175 3.33533 31.2128 3.37L31.1998 5.099C31.0178 5.021 30.8618 4.97333 30.7318 4.956C30.6105 4.93 30.4545 4.917 30.2638 4.917C29.8998 4.917 29.5965 4.98633 29.3538 5.125C29.1198 5.26367 28.9421 5.46733 28.8208 5.736C28.7081 6.00467 28.6518 6.32967 28.6518 6.711V10H26.6758ZM35.4954 10.143C34.6374 10.143 33.9917 9.93067 33.5584 9.506C33.1251 9.07267 32.9084 8.427 32.9084 7.569V4.878H31.6604V3.409H32.9084V1.797L34.8714 1.316V3.409H36.5614V4.878H34.8714V7.465C34.8714 7.881 34.9581 8.167 35.1314 8.323C35.3047 8.479 35.5257 8.557 35.7944 8.557C35.9591 8.557 36.0934 8.54833 36.1974 8.531C36.3101 8.505 36.4271 8.47033 36.5484 8.427V9.948C36.3837 10.0173 36.2104 10.065 36.0284 10.091C35.8464 10.1257 35.6687 10.143 35.4954 10.143ZM40.8202 10.143C39.6762 10.143 38.7836 9.83533 38.1422 9.22C37.5009 8.60467 37.1802 7.76833 37.1802 6.711C37.1802 6.02633 37.3146 5.42833 37.5832 4.917C37.8606 4.40567 38.2419 4.007 38.7272 3.721C39.2212 3.42633 39.7976 3.279 40.4562 3.279C41.1062 3.279 41.6479 3.41767 42.0812 3.695C42.5232 3.97233 42.8526 4.36233 43.0692 4.865C43.2946 5.359 43.4072 5.93533 43.4072 6.594V7.049H38.7922V6.074H41.9772L41.7562 6.256C41.7562 5.71 41.6436 5.29833 41.4182 5.021C41.2016 4.735 40.8852 4.592 40.4692 4.592C40.0099 4.592 39.6546 4.761 39.4032 5.099C39.1606 5.437 39.0392 5.92233 39.0392 6.555V6.763C39.0392 7.40433 39.1952 7.881 39.5072 8.193C39.8279 8.505 40.2872 8.661 40.8852 8.661C41.2406 8.661 41.5742 8.61767 41.8862 8.531C42.2069 8.43567 42.5102 8.28833 42.7962 8.089L43.3422 9.389C43.0129 9.63167 42.6316 9.818 42.1982 9.948C41.7736 10.078 41.3142 10.143 40.8202 10.143ZM44.6527 10V0.431999H46.6157V10H44.6527ZM48.1551 12.951L47.7001 11.417C48.1074 11.339 48.4497 11.248 48.7271 11.144C49.0131 11.04 49.2471 10.9013 49.4291 10.728C49.6111 10.5633 49.7584 10.3467 49.8711 10.078L50.1961 9.311L50.1441 10.065L47.2841 3.409H49.3511L51.2361 8.18H50.8331L52.7441 3.409H54.6941L51.7171 10.26C51.5004 10.754 51.2664 11.1613 51.0151 11.482C50.7724 11.8113 50.5081 12.0713 50.2221 12.262C49.9361 12.4527 49.6197 12.6 49.2731 12.704C48.9351 12.808 48.5624 12.8903 48.1551 12.951Z" fill="black"/>
</svg>
